M48
;Layer_Color=9474304
;FILE_FORMAT=4:4
METRIC,LZ
;TYPE=PLATED
T1F00S00C0.7000
T2F00S00C0.7112
T3F00S00C0.8500
T4F00S00C1.0000
T6F00S00C1.1000
%
T01
X0066294Y0071628
Y0079248
T02
X00850082Y007747
X00788162Y0074422
X00719074Y00840232
T03
X0064516Y0085979
Y0093599
X0075819Y0093853
Y0086233
X0080899Y0085344
Y0092964
X0089662Y009271
Y008509
X0098044Y0085598
Y0093218
T04
X00325849Y00848261
Y00873661
Y00899061
Y00924461
Y00949861
Y00975261
Y01000661
Y01026061
Y01051461
Y01076861
Y01102261
Y01127661
Y01153061
Y01178461
X0057355
Y01153061
Y01127661
Y01102261
Y01076861
Y01051461
Y01026061
Y01000661
Y00975261
Y00949861
Y00924461
Y00899061
Y00873661
Y00848261
Y01203861
X00325849
T06
X0098425Y0104775
Y0109855
X009144Y0122682
X008636
X0073279Y0122809
X0068199
M30
