G04*
G04 #@! TF.GenerationSoftware,Altium Limited,Altium Designer,23.2.1 (34)*
G04*
G04 Layer_Color=16711935*
%FSLAX44Y44*%
%MOMM*%
G71*
G04*
G04 #@! TF.SameCoordinates,FBD9A347-9EDB-47C0-AAAE-CD2F767B64E6*
G04*
G04*
G04 #@! TF.FilePolarity,Negative*
G04*
G01*
G75*
%ADD16C,1.4032*%
%ADD17C,2.1336*%
%ADD18R,1.8532X1.8532*%
%ADD19C,1.8532*%
%ADD20R,1.8532X1.8532*%
%ADD21C,1.6032*%
G04:AMPARAMS|DCode=22|XSize=3.2mm|YSize=1.6mm|CornerRadius=0.8mm|HoleSize=0mm|Usage=FLASHONLY|Rotation=270.000|XOffset=0mm|YOffset=0mm|HoleType=Round|Shape=RoundedRectangle|*
%AMROUNDEDRECTD22*
21,1,3.2000,0.0000,0,0,270.0*
21,1,1.6000,1.6000,0,0,270.0*
1,1,1.6000,0.0000,-0.8000*
1,1,1.6000,0.0000,0.8000*
1,1,1.6000,0.0000,0.8000*
1,1,1.6000,0.0000,-0.8000*
%
%ADD22ROUNDEDRECTD22*%
%ADD23R,1.6000X3.2000*%
G04:AMPARAMS|DCode=24|XSize=1.6mm|YSize=3.2mm|CornerRadius=0.8mm|HoleSize=0mm|Usage=FLASHONLY|Rotation=270.000|XOffset=0mm|YOffset=0mm|HoleType=Round|Shape=RoundedRectangle|*
%AMROUNDEDRECTD24*
21,1,1.6000,1.6000,0,0,270.0*
21,1,0.0000,3.2000,0,0,270.0*
1,1,1.6000,-0.8000,0.0000*
1,1,1.6000,-0.8000,0.0000*
1,1,1.6000,0.8000,0.0000*
1,1,1.6000,0.8000,0.0000*
%
%ADD24ROUNDEDRECTD24*%
%ADD25C,1.4732*%
D16*
X662940Y792480D02*
D03*
Y716280D02*
D03*
D17*
X325849Y1051461D02*
D03*
Y1203861D02*
D03*
Y1178461D02*
D03*
Y1153061D02*
D03*
Y1127661D02*
D03*
Y1102261D02*
D03*
Y1076861D02*
D03*
Y1026061D02*
D03*
Y1000661D02*
D03*
Y975261D02*
D03*
Y949861D02*
D03*
Y924461D02*
D03*
Y899061D02*
D03*
Y873661D02*
D03*
Y848261D02*
D03*
X573550Y1203861D02*
D03*
Y1178461D02*
D03*
Y1153061D02*
D03*
Y1127661D02*
D03*
Y1102261D02*
D03*
Y1076861D02*
D03*
Y1051461D02*
D03*
Y1026061D02*
D03*
Y1000661D02*
D03*
Y975261D02*
D03*
Y949861D02*
D03*
Y924461D02*
D03*
Y899061D02*
D03*
Y873661D02*
D03*
Y848261D02*
D03*
D18*
X732790Y1228090D02*
D03*
X914400Y1226820D02*
D03*
D19*
X681990Y1228090D02*
D03*
X984250Y1098550D02*
D03*
X863600Y1226820D02*
D03*
D20*
X984250Y1047750D02*
D03*
D21*
X980440Y932180D02*
D03*
Y855980D02*
D03*
X896620Y927100D02*
D03*
Y850900D02*
D03*
X808990Y929640D02*
D03*
Y853440D02*
D03*
X645160Y935990D02*
D03*
Y859790D02*
D03*
X758190Y938530D02*
D03*
Y862330D02*
D03*
D22*
X942340Y660400D02*
D03*
D23*
X882340D02*
D03*
D24*
X912340Y707400D02*
D03*
D25*
X788162Y744220D02*
D03*
X719074Y840232D02*
D03*
X850082Y774700D02*
D03*
M02*
