G04*
G04 #@! TF.GenerationSoftware,Altium Limited,Altium Designer,23.2.1 (34)*
G04*
G04 Layer_Physical_Order=2*
G04 Layer_Color=16711680*
%FSLAX44Y44*%
%MOMM*%
G71*
G04*
G04 #@! TF.SameCoordinates,FBD9A347-9EDB-47C0-AAAE-CD2F767B64E6*
G04*
G04*
G04 #@! TF.FilePolarity,Positive*
G04*
G01*
G75*
%ADD13C,0.2540*%
G04:AMPARAMS|DCode=22|XSize=3.2mm|YSize=1.6mm|CornerRadius=0.8mm|HoleSize=0mm|Usage=FLASHONLY|Rotation=270.000|XOffset=0mm|YOffset=0mm|HoleType=Round|Shape=RoundedRectangle|*
%AMROUNDEDRECTD22*
21,1,3.2000,0.0000,0,0,270.0*
21,1,1.6000,1.6000,0,0,270.0*
1,1,1.6000,0.0000,-0.8000*
1,1,1.6000,0.0000,0.8000*
1,1,1.6000,0.0000,0.8000*
1,1,1.6000,0.0000,-0.8000*
%
%ADD22ROUNDEDRECTD22*%
%ADD23R,1.6000X3.2000*%
G04:AMPARAMS|DCode=24|XSize=1.6mm|YSize=3.2mm|CornerRadius=0.8mm|HoleSize=0mm|Usage=FLASHONLY|Rotation=270.000|XOffset=0mm|YOffset=0mm|HoleType=Round|Shape=RoundedRectangle|*
%AMROUNDEDRECTD24*
21,1,1.6000,1.6000,0,0,270.0*
21,1,0.0000,3.2000,0,0,270.0*
1,1,1.6000,-0.8000,0.0000*
1,1,1.6000,-0.8000,0.0000*
1,1,1.6000,0.8000,0.0000*
1,1,1.6000,0.8000,0.0000*
%
%ADD24ROUNDEDRECTD24*%
%ADD26C,1.2000*%
%ADD27C,1.9304*%
%ADD28R,1.6500X1.6500*%
%ADD29C,1.6500*%
%ADD30R,1.6500X1.6500*%
%ADD31C,1.4000*%
%ADD32C,1.2700*%
D13*
X725579Y829719D02*
X758190Y862330D01*
X688340Y792480D02*
X725579Y829719D01*
X882340Y668274D02*
Y742442D01*
Y660400D02*
Y668274D01*
X505836D02*
X882340D01*
X325849Y873661D02*
X369791Y829719D01*
X725579D01*
X662940Y792480D02*
X688340D01*
X901192Y1240028D02*
X914400Y1226820D01*
X744728Y1240028D02*
X901192D01*
X732790Y1228090D02*
X744728Y1240028D01*
X645160Y859790D02*
X723900Y938530D01*
X758190D01*
X690880Y744220D02*
X788162D01*
X662940Y716280D02*
X690880Y744220D01*
X325849Y1051461D02*
X349095D01*
X565757Y834799D01*
X713641D01*
X719074Y840232D01*
X850082Y774700D02*
X882340Y742442D01*
X758190Y862330D02*
X767080Y853440D01*
X808990D01*
X325849Y1127661D02*
X421960Y1223772D01*
X585216D01*
X808990Y999998D01*
Y929640D02*
Y999998D01*
Y929640D02*
X887730Y850900D01*
X896620D01*
Y927100D02*
X967740Y855980D01*
X980440D01*
X325849Y848261D02*
X505836Y668274D01*
X312166Y1090544D02*
X325849Y1076861D01*
X312166Y1090544D02*
Y1219200D01*
X322326Y1229360D01*
X609600D01*
X740410Y1098550D01*
X984250D01*
D22*
X942340Y660400D02*
D03*
D23*
X882340D02*
D03*
D24*
X912340Y707400D02*
D03*
D26*
X662940Y792480D02*
D03*
Y716280D02*
D03*
D27*
X325849Y1051461D02*
D03*
Y1203861D02*
D03*
Y1178461D02*
D03*
Y1153061D02*
D03*
Y1127661D02*
D03*
Y1102261D02*
D03*
Y1076861D02*
D03*
Y1026061D02*
D03*
Y1000661D02*
D03*
Y975261D02*
D03*
Y949861D02*
D03*
Y924461D02*
D03*
Y899061D02*
D03*
Y873661D02*
D03*
Y848261D02*
D03*
X573550Y1203861D02*
D03*
Y1178461D02*
D03*
Y1153061D02*
D03*
Y1127661D02*
D03*
Y1102261D02*
D03*
Y1076861D02*
D03*
Y1051461D02*
D03*
Y1026061D02*
D03*
Y1000661D02*
D03*
Y975261D02*
D03*
Y949861D02*
D03*
Y924461D02*
D03*
Y899061D02*
D03*
Y873661D02*
D03*
Y848261D02*
D03*
D28*
X732790Y1228090D02*
D03*
X914400Y1226820D02*
D03*
D29*
X681990Y1228090D02*
D03*
X984250Y1098550D02*
D03*
X863600Y1226820D02*
D03*
D30*
X984250Y1047750D02*
D03*
D31*
X980440Y932180D02*
D03*
Y855980D02*
D03*
X896620Y927100D02*
D03*
Y850900D02*
D03*
X808990Y929640D02*
D03*
Y853440D02*
D03*
X645160Y935990D02*
D03*
Y859790D02*
D03*
X758190Y938530D02*
D03*
Y862330D02*
D03*
D32*
X788162Y744220D02*
D03*
X719074Y840232D02*
D03*
X850082Y774700D02*
D03*
M02*
